<svg id="Layer_1" data-name="Layer 1" xmlns="http://www.w3.org/2000/svg" xmlns:xlink="http://www.w3.org/1999/xlink" viewBox="0 0 700 300"><defs><style>.cls-1{fill:#ef0c0c;opacity:0.18;}.cls-2{fill:url(#linear-gradient);}.cls-3{fill:url(#linear-gradient-2);}.cls-4{fill:url(#linear-gradient-3);}.cls-5{fill:url(#linear-gradient-4);}.cls-6{fill:url(#linear-gradient-5);}.cls-7{fill:url(#linear-gradient-6);}.cls-8{fill:url(#linear-gradient-7);}.cls-9{fill:url(#linear-gradient-8);}.cls-10{fill:url(#linear-gradient-9);}.cls-11{fill:url(#linear-gradient-10);}</style><linearGradient id="linear-gradient" x1="516.96" y1="60.56" x2="577.8" y2="121.39" gradientUnits="userSpaceOnUse"><stop offset="0" stop-color="#ff0200"/><stop offset="1" stop-color="#f08"/></linearGradient><linearGradient id="linear-gradient-2" x1="467.41" y1="115.9" x2="606.85" y2="255.33" gradientUnits="userSpaceOnUse"><stop offset="0" stop-color="#2696ff"/><stop offset="1" stop-color="#9d2bff"/></linearGradient><linearGradient id="linear-gradient-3" x1="428.68" y1="154.63" x2="568.12" y2="294.06" xlink:href="#linear-gradient-2"/><linearGradient id="linear-gradient-4" x1="442.05" y1="141.26" x2="581.48" y2="280.69" xlink:href="#linear-gradient-2"/><linearGradient id="linear-gradient-5" x1="453.6" y1="129.71" x2="593.04" y2="269.14" xlink:href="#linear-gradient-2"/><linearGradient id="linear-gradient-6" x1="466.08" y1="117.23" x2="605.52" y2="256.66" xlink:href="#linear-gradient-2"/><linearGradient id="linear-gradient-7" x1="481.1" y1="102.21" x2="620.53" y2="241.64" xlink:href="#linear-gradient-2"/><linearGradient id="linear-gradient-8" x1="491.99" y1="91.31" x2="631.43" y2="230.75" xlink:href="#linear-gradient-2"/><linearGradient id="linear-gradient-9" x1="512.59" y1="64.94" x2="573.42" y2="125.77" xlink:href="#linear-gradient"/><linearGradient id="linear-gradient-10" x1="496.29" y1="87.02" x2="635.72" y2="226.46" xlink:href="#linear-gradient-2"/></defs><title>dashboard-background</title><path class="cls-1" d="M851.75,170.32S642.59,91.57,491.43,187.39,139.68,316.91,139.68,316.91l579.19-7.3Z"/><path class="cls-2" d="M554.7,127.63a3.22,3.22,0,0,1-1.24-6.2,24.36,24.36,0,0,0,12-34.08,3.22,3.22,0,0,1,5.66-3.08,30.81,30.81,0,0,1-15.23,43.11A3.15,3.15,0,0,1,554.7,127.63Z"/><path class="cls-3" d="M654.88,157.16s0-.09,0-.13l-22.2-40.41a16.8,16.8,0,0,0-14.74-8.72H582.48a3.22,3.22,0,0,0,0,6.44h35.43a10.39,10.39,0,0,1,9.1,5.38l19.57,35.64H441.65l19.57-35.64a10.37,10.37,0,0,1,9.1-5.38h35a3.22,3.22,0,0,0,0-6.44h-35a16.8,16.8,0,0,0-14.74,8.72L433.38,157s0,.09,0,.13a3.08,3.08,0,0,0-.36,1.42V240a16.83,16.83,0,0,0,16.81,16.81H638.43A16.83,16.83,0,0,0,655.24,240v-81.4A3.21,3.21,0,0,0,654.88,157.16ZM648.8,240a10.39,10.39,0,0,1-10.37,10.37H449.8A10.39,10.39,0,0,1,439.43,240V161.8H648.8Z"/><path class="cls-4" d="M474.12,226.48h6.72a9.17,9.17,0,0,0,9.17-9.16V192a9.17,9.17,0,0,0-9.17-9.16h-6.72A3.15,3.15,0,0,0,471,186v37.33A3.15,3.15,0,0,0,474.12,226.48Zm9.59-9.16a2.87,2.87,0,0,1-2.87,2.86h-3.57v-31h3.57a2.87,2.87,0,0,1,2.87,2.86Z"/><path class="cls-5" d="M505.5,226.48A9.49,9.49,0,0,0,515,217V192.34a9.52,9.52,0,0,0-19,0V217A9.5,9.5,0,0,0,505.5,226.48ZM502.25,217V192.34a3.22,3.22,0,0,1,3.25-3.18,3.18,3.18,0,0,1,3.18,3.18V217a3.22,3.22,0,0,1-6.43,0Z"/><path class="cls-6" d="M524.07,226.48a3.15,3.15,0,0,0,3.15-3.14v-31a3.22,3.22,0,0,1,6.43,0v31a3.15,3.15,0,0,0,6.3,0v-31a9.52,9.52,0,0,0-19,0v31A3.15,3.15,0,0,0,524.07,226.48Z"/><path class="cls-7" d="M549,226.48a3.15,3.15,0,0,0,3.15-3.14V205.75h6.4v17.59a3.15,3.15,0,0,0,6.3,0v-31a9.5,9.5,0,0,0-19,0v31A3.15,3.15,0,0,0,549,226.48Zm6.35-37.32a3.2,3.2,0,0,1,3.2,3.2v7.09h-6.4v-7.09A3.2,3.2,0,0,1,555.39,189.16Z"/><path class="cls-8" d="M574,189.16h3.21v34.18a3.16,3.16,0,0,0,6.31,0V189.16h3.22a3.15,3.15,0,0,0,0-6.3H574a3.15,3.15,0,1,0,0,6.3Z"/><path class="cls-9" d="M599,226.48h12.74a3.15,3.15,0,1,0,0-6.3h-9.59V205.75h6.37a3.15,3.15,0,0,0,0-6.3h-6.37V189.16h9.59a3.15,3.15,0,0,0,0-6.3H599a3.16,3.16,0,0,0-3.15,3.15v37.33A3.15,3.15,0,0,0,599,226.48Z"/><path class="cls-10" d="M581.89,79.24c-3.1-6.27-7.7-13.2-14.5-21.82a165,165,0,0,0-21.16-22.09,2.6,2.6,0,0,0-.36-.21,3.59,3.59,0,0,0-.57-.32,2.82,2.82,0,0,0-.57-.15,3.29,3.29,0,0,0-.62-.08,3,3,0,0,0-.59.07,3.13,3.13,0,0,0-.6.16,3,3,0,0,0-.55.32,2,2,0,0,0-.37.21,165,165,0,0,0-21.16,22.09C514,66,509.43,73,506.41,79.12a42.93,42.93,0,0,0,18,58.59,3.22,3.22,0,1,0,3-5.72A36.36,36.36,0,0,1,507.65,99.6a36.74,36.74,0,0,1,4.47-17.51c2.88-5.85,7.26-12.42,13.77-20.68a158.35,158.35,0,0,1,18.22-19.3,157.68,157.68,0,0,1,18.23,19.3c6.51,8.26,10.88,14.83,13.83,20.79A36.5,36.5,0,0,1,560.89,132a3.22,3.22,0,0,0,1.48,6.08,3.14,3.14,0,0,0,1.48-.36,42.94,42.94,0,0,0,18-58.47Z"/><path class="cls-11" d="M499.42,134.85a3.22,3.22,0,0,0,3.22,3.22h83a3.22,3.22,0,0,0,0-6.44h-83A3.22,3.22,0,0,0,499.42,134.85Z"/></svg>