<?xml version="1.0" encoding="utf-8"?>
<!-- Generator: Adobe Illustrator 23.0.3, SVG Export Plug-In . SVG Version: 6.00 Build 0)  -->
<svg version="1.1" id="Layer_1" xmlns="http://www.w3.org/2000/svg" xmlns:xlink="http://www.w3.org/1999/xlink" x="0px" y="0px"
	 viewBox="0 0 199 156.4" style="enable-background:new 0 0 199 156.4;" xml:space="preserve">
<style type="text/css">
	.st0{fill:url(#SVGID_1_);}
	.st1{fill:url(#SVGID_2_);}
	.st2{fill:url(#SVGID_3_);}
	.st3{fill:url(#SVGID_4_);}
	.st4{fill:url(#SVGID_5_);}
</style>
<title>donate</title>
<linearGradient id="SVGID_1_" gradientUnits="userSpaceOnUse" x1="29.4741" y1="110.0684" x2="118.2281" y2="21.3144" gradientTransform="matrix(1 0 0 -1 0 157.7197)">
	<stop  offset="0" style="stop-color:#2696FF"/>
	<stop  offset="1" style="stop-color:#9D2BFF"/>
</linearGradient>
<path class="st0" d="M83.4,39.6c0-3.1-2.5-5.6-5.6-5.6c-0.7,0-1.4,0.1-2.1,0.4v-4.3c0-3.1-2.5-5.6-5.6-5.6c-0.7,0-1.5,0.1-2.1,0.4
	v-0.1c0-3.1-2.5-5.6-5.6-5.6c-3.1,0-5.6,2.5-5.6,5.6V25c-0.7-0.3-1.4-0.4-2.1-0.4c-3.1,0-5.6,2.5-5.6,5.6v24l-3-6.6
	c-1.2-2.8-4.5-4.1-7.4-2.9c-1.2,0.5-2.1,1.4-2.7,2.5c-0.8,1.5-0.9,3.4-0.2,4.9l10.8,23.8l0,0c1.3,3.2,3.5,6.1,6.3,8.1v52.5
	c0,1,0.8,1.7,1.7,1.7c1,0,1.7-0.8,1.7-1.7c0,0,0,0,0,0V83c0-0.6-0.3-1.1-0.8-1.4c-2.6-1.7-4.7-4.3-5.8-7.2l0,0l0,0L38.9,50.6
	c-0.5-1.1,0-2.4,1.1-2.8c0.2-0.1,0.4-0.1,0.6-0.2c1-0.1,1.9,0.4,2.3,1.4l3.7,8.1l0,0l0.1,0.2c0,0,0,0,0,0.1c0.7,1.4,1.6,2.6,2.8,3.7
	c0,0,0.1,0.1,0.1,0.1c1.5,1.3,3.3,2.2,5.3,2.5c3.5,0.4,6,3.6,5.6,7c-0.1,0.8-0.4,1.7-0.8,2.4c-0.5,0.8-0.1,1.9,0.7,2.3c0,0,0,0,0,0
	c0.3,0.1,0.5,0.2,0.8,0.2c0.6,0,1.2-0.3,1.5-0.9c1.5-2.7,1.6-6,0.4-8.8c-1.4-3.2-4.4-5.3-7.8-5.7c-1.1-0.2-2.1-0.6-2.9-1.2V30.1
	c0.1-1.2,1.1-2.1,2.3-2c1.1,0.1,2,0.9,2,2v19.3c0,1,0.8,1.7,1.7,1.7c1,0,1.7-0.8,1.7-1.7c0,0,0,0,0,0V24.9c0.1-1.2,1.1-2.1,2.3-2
	c1.1,0.1,2,0.9,2,2v24.6c0,1,0.8,1.7,1.7,1.7c1,0,1.7-0.8,1.7-1.7c0,0,0,0,0,0V30.1c0.1-1.2,1.1-2.1,2.3-2c1.1,0.1,2,0.9,2,2v23.2
	c0,1,0.8,1.7,1.7,1.7c1,0,1.7-0.8,1.7-1.7c0,0,0,0,0,0V39.6c0.1-1.2,1.1-2.1,2.3-2c1.1,0.1,2,0.9,2,2v29c0,8.6-7,15.7-15.6,15.7
	c0,0,0,0-0.1,0c-1,0.1-1.7,0.9-1.6,1.8c0.1,0.9,0.7,1.6,1.6,1.6c1.8,0,3.7-0.3,5.4-0.8c1.7-0.5,3.3-1.3,4.8-2.3v51.8
	c0,1,0.8,1.7,1.7,1.7c1,0,1.7-0.8,1.7-1.7c0,0,0,0,0,0V81.8c3.5-3.6,5.4-8.3,5.4-13.3L83.4,39.6z"/>
<linearGradient id="SVGID_2_" gradientUnits="userSpaceOnUse" x1="63.6744" y1="144.2686" x2="152.4284" y2="55.5146" gradientTransform="matrix(1 0 0 -1 0 157.7197)">
	<stop  offset="0" style="stop-color:#2696FF"/>
	<stop  offset="1" style="stop-color:#9D2BFF"/>
</linearGradient>
<path class="st1" d="M153.7,105.5l-10.8-23.8l0,0c-1.3-3.2-3.5-6-6.3-8.1V21c0-1-0.8-1.7-1.7-1.7c-1,0-1.7,0.8-1.7,1.7c0,0,0,0,0,0
	v53.4c0,0.1,0,0.1,0,0.2c0,0.1,0,0.2,0.1,0.3c0,0.1,0.1,0.2,0.1,0.3c0.1,0.1,0.1,0.2,0.2,0.3c0.1,0.1,0.2,0.2,0.3,0.3l0.1,0.1
	c2.6,1.7,4.7,4.3,5.8,7.2l0,0c0,0,0,0,0,0l10.8,23.8c0.3,0.6,0.2,1.3-0.1,1.9c-0.3,0.6-0.9,1-1.6,1.1c-1,0.1-1.9-0.4-2.3-1.4
	l-3.7-8.1l0,0l-0.1-0.2c0,0,0,0,0-0.1c-0.7-1.4-1.6-2.6-2.8-3.7c0,0-0.1-0.1-0.1-0.1c-1.5-1.3-3.4-2.2-5.3-2.5c-3.5-0.4-6-3.6-5.6-7
	c0.1-0.8,0.4-1.7,0.8-2.4c0.5-0.8,0.2-1.9-0.7-2.3c-0.8-0.5-1.9-0.2-2.3,0.7l0,0c-2.7,4.7-1,10.7,3.7,13.3c1.2,0.6,2.4,1.1,3.7,1.2
	c1.1,0.2,2.1,0.6,2.9,1.2v28.8c0,1.2-1,2.1-2.1,2.1c-1.2,0-2.1-1-2.1-2.1V108c-0.1-1-0.9-1.7-1.8-1.6c-0.9,0.1-1.6,0.7-1.6,1.6v24.6
	c0,1.2-1,2.1-2.1,2.1c-1.2,0-2.1-1-2.1-2.1V108c0-1-0.8-1.7-1.7-1.7c-0.9,0-1.7,0.8-1.7,1.7v19.3c-0.1,1.2-1.1,2.1-2.3,2
	c-1.1-0.1-2-0.9-2-2v-23.2c0-1-0.8-1.7-1.7-1.7c-0.9,0-1.7,0.8-1.7,1.7v13.7c0.1,1.2-0.8,2.2-2,2.3c-1.2,0.1-2.2-0.8-2.3-2
	c0-0.1,0-0.2,0-0.2V88.9c0-8.7,7-15.7,15.7-15.7c1-0.1,1.7-0.9,1.6-1.8c-0.1-0.9-0.7-1.6-1.6-1.6c-3.6,0-7.2,1-10.2,3V21
	c0-1-0.8-1.7-1.7-1.7c-1,0-1.7,0.8-1.7,1.7c0,0,0,0,0,0v54.6c-3.5,3.6-5.5,8.3-5.5,13.3v28.9c0,3.1,2.5,5.6,5.6,5.6
	c0.7,0,1.5-0.1,2.1-0.4v4.3c0,3.1,2.5,5.6,5.6,5.6c0.7,0,1.5-0.1,2.1-0.4v0.1c0,3.1,2.5,5.6,5.6,5.6c3.1,0,5.6-2.5,5.6-5.6v-0.1
	c0.7,0.3,1.4,0.4,2.1,0.4c3.1,0,5.6-2.5,5.6-5.6v-24l3,6.6c0.9,2,2.9,3.4,5.1,3.4c0.3,0,0.6,0,0.9-0.1c3.1-0.5,5.1-3.4,4.6-6.4
	C154.1,106.4,153.9,105.9,153.7,105.5L153.7,105.5z"/>
<linearGradient id="SVGID_3_" gradientUnits="userSpaceOnUse" x1="58.4149" y1="115.3442" x2="130.2634" y2="43.4887" gradientTransform="matrix(1 0 0 -1 0 157.7197)">
	<stop  offset="0" style="stop-color:#FF0200"/>
	<stop  offset="1" style="stop-color:#FF0088"/>
</linearGradient>
<path class="st2" d="M80.1,128.4c-9,0-16.4-7.3-16.4-16.3v-0.3c0.1-1,0.9-1.7,1.8-1.6c0.9,0.1,1.6,0.7,1.6,1.6v0.3
	c-0.2,7.1,5.5,13.1,12.6,13.2c7.1,0.2,13.1-5.5,13.2-12.6c0-0.2,0-0.4,0-0.6V45.4c0-9,7.3-16.4,16.4-16.4s16.4,7.3,16.4,16.4v0.3
	c0.1,1-0.7,1.8-1.6,1.8c-1,0.1-1.8-0.7-1.8-1.6c0-0.1,0-0.1,0-0.2v-0.3c-0.2-7.1-6.1-12.8-13.2-12.6c-6.9,0.2-12.5,5.7-12.6,12.6
	V112C96.5,121.1,89.1,128.4,80.1,128.4z"/>
<linearGradient id="SVGID_4_" gradientUnits="userSpaceOnUse" x1="87.9468" y1="144.8761" x2="159.8022" y2="73.0276" gradientTransform="matrix(1 0 0 -1 0 157.7197)">
	<stop  offset="0" style="stop-color:#FF0200"/>
	<stop  offset="1" style="stop-color:#FF0088"/>
</linearGradient>
<path class="st3" d="M127.3,53.9h-6.5c-2.7,0-4.9-2.2-4.9-4.9c0-2.7,2.2-4.9,4.9-4.9h6.5c2.7,0,4.9,2.2,4.9,4.9
	C132.2,51.7,130,53.9,127.3,53.9z M120.8,47.5c-0.8,0-1.5,0.7-1.5,1.5c0,0.8,0.7,1.5,1.5,1.5h6.5c0.8,0,1.5-0.7,1.5-1.5
	c0-0.8-0.7-1.5-1.5-1.5c0,0,0,0,0,0H120.8z"/>
<linearGradient id="SVGID_5_" gradientUnits="userSpaceOnUse" x1="28.8772" y1="85.8065" x2="100.7256" y2="13.958" gradientTransform="matrix(1 0 0 -1 0 157.7197)">
	<stop  offset="0" style="stop-color:#FF0200"/>
	<stop  offset="1" style="stop-color:#FF0088"/>
</linearGradient>
<path class="st4" d="M68.7,113.4h-6.5c-2.7,0-4.9-2.2-4.9-4.9s2.2-4.9,4.9-4.9h6.5c2.7,0,4.9,2.2,4.9,4.9S71.4,113.4,68.7,113.4
	L68.7,113.4z M62.2,107c-0.8-0.1-1.5,0.6-1.6,1.4c-0.1,0.8,0.6,1.5,1.4,1.6c0.1,0,0.1,0,0.2,0h6.5c0.8-0.1,1.4-0.8,1.4-1.6
	c-0.1-0.7-0.6-1.3-1.4-1.4H62.2z"/>
</svg>
