<svg id="Layer_1" data-name="Layer 1" xmlns="http://www.w3.org/2000/svg" xmlns:xlink="http://www.w3.org/1999/xlink" viewBox="0 0 48 48"><defs><style>.cls-1{fill:url(#linear-gradient);}.cls-2{fill:url(#linear-gradient-2);}.cls-3{fill:url(#linear-gradient-3);}.cls-4{fill:url(#linear-gradient-4);}.cls-5{fill:url(#linear-gradient-5);}.cls-6{fill:url(#linear-gradient-6);}.cls-7{fill:url(#linear-gradient-7);}.cls-8{fill:url(#linear-gradient-8);}.cls-9{fill:url(#linear-gradient-9);}.cls-10{fill:url(#linear-gradient-10);}</style><linearGradient id="linear-gradient" x1="19.68" y1="7.66" x2="30.73" y2="18.71" gradientUnits="userSpaceOnUse"><stop offset="0" stop-color="#ff0200"/><stop offset="1" stop-color="#f08"/></linearGradient><linearGradient id="linear-gradient-2" x1="10.68" y1="17.71" x2="36" y2="43.03" gradientUnits="userSpaceOnUse"><stop offset="0" stop-color="#2696ff"/><stop offset="1" stop-color="#9d2bff"/></linearGradient><linearGradient id="linear-gradient-3" x1="3.65" y1="24.74" x2="28.97" y2="50.06" xlink:href="#linear-gradient-2"/><linearGradient id="linear-gradient-4" x1="6.08" y1="22.31" x2="31.4" y2="47.63" xlink:href="#linear-gradient-2"/><linearGradient id="linear-gradient-5" x1="8.18" y1="20.22" x2="33.5" y2="45.54" xlink:href="#linear-gradient-2"/><linearGradient id="linear-gradient-6" x1="10.44" y1="17.95" x2="35.76" y2="43.27" xlink:href="#linear-gradient-2"/><linearGradient id="linear-gradient-7" x1="13.17" y1="15.22" x2="38.49" y2="40.54" xlink:href="#linear-gradient-2"/><linearGradient id="linear-gradient-8" x1="15.15" y1="13.24" x2="40.47" y2="38.56" xlink:href="#linear-gradient-2"/><linearGradient id="linear-gradient-9" x1="18.89" y1="8.46" x2="29.93" y2="19.5" xlink:href="#linear-gradient"/><linearGradient id="linear-gradient-10" x1="15.93" y1="12.46" x2="41.25" y2="37.78" xlink:href="#linear-gradient-2"/></defs><title>donateicon</title><path class="cls-1" d="M26.53,19.84a.61.61,0,0,1-.54-.36.6.6,0,0,1,.32-.77,4.42,4.42,0,0,0,2.19-6.18.59.59,0,0,1,.23-.8.58.58,0,0,1,.79.24,5.48,5.48,0,0,1,.68,2.66,5.57,5.57,0,0,1-3.44,5.16A.59.59,0,0,1,26.53,19.84Z"/><path class="cls-2" d="M44.73,25.2a0,0,0,0,1,0,0l-4-7.34A3,3,0,0,0,38,16.26H31.58a.59.59,0,0,0-.59.58.6.6,0,0,0,.59.59H38a1.88,1.88,0,0,1,1.65,1l3.56,6.47H6L9.56,18.4a1.88,1.88,0,0,1,1.65-1h6.36a.59.59,0,0,0,.59-.59.58.58,0,0,0-.59-.58H11.21a3,3,0,0,0-2.67,1.58l-4,7.34s0,0,0,0a.59.59,0,0,0-.07.26V40.24a3.06,3.06,0,0,0,3.06,3H41.74a3.06,3.06,0,0,0,3-3V25.46A.58.58,0,0,0,44.73,25.2Zm-1.11,15a1.88,1.88,0,0,1-1.88,1.88H7.49A1.89,1.89,0,0,1,5.6,40.24V26h38Z"/><path class="cls-3" d="M11.9,37.79h1.22a1.67,1.67,0,0,0,1.67-1.67V31.53a1.66,1.66,0,0,0-1.67-1.66H11.9a.57.57,0,0,0-.57.57v6.78A.58.58,0,0,0,11.9,37.79Zm1.74-1.67a.52.52,0,0,1-.52.53h-.64V31h.64a.52.52,0,0,1,.52.52Z"/><path class="cls-4" d="M17.6,37.79a1.72,1.72,0,0,0,1.72-1.72V31.59a1.73,1.73,0,0,0-3.45,0v4.48A1.72,1.72,0,0,0,17.6,37.79ZM17,36.07V31.59A.59.59,0,0,1,17.6,31a.58.58,0,0,1,.58.58v4.48a.59.59,0,0,1-1.17,0Z"/><path class="cls-5" d="M21,37.79a.57.57,0,0,0,.57-.57V31.6a.59.59,0,0,1,.59-.59.58.58,0,0,1,.58.59v5.62a.58.58,0,0,0,1.15,0V31.6a1.73,1.73,0,1,0-3.46,0v5.62A.58.58,0,0,0,21,37.79Z"/><path class="cls-6" d="M25.51,37.79a.58.58,0,0,0,.57-.57V34h1.16v3.2a.58.58,0,0,0,1.15,0V31.59a1.73,1.73,0,0,0-3.45,0v5.63A.57.57,0,0,0,25.51,37.79ZM26.66,31a.58.58,0,0,1,.58.58v1.29H26.08V31.59A.58.58,0,0,1,26.66,31Z"/><path class="cls-7" d="M30,31h.59v6.21a.57.57,0,0,0,.57.57.58.58,0,0,0,.57-.57V31h.58a.58.58,0,0,0,.58-.57.57.57,0,0,0-.58-.57H30a.57.57,0,0,0-.57.57A.58.58,0,0,0,30,31Z"/><path class="cls-8" d="M34.58,37.79h2.31a.58.58,0,0,0,.57-.57.57.57,0,0,0-.57-.57H35.15V34H36.3a.57.57,0,0,0,.58-.57.58.58,0,0,0-.58-.57H35.15V31h1.74a.58.58,0,0,0,.57-.57.57.57,0,0,0-.57-.57H34.58a.57.57,0,0,0-.58.57v6.78A.58.58,0,0,0,34.58,37.79Z"/><path class="cls-9" d="M31.47,11.05a22.89,22.89,0,0,0-2.63-4,30.12,30.12,0,0,0-3.84-4l-.07,0L24.83,3l-.11,0H24.5l-.1,0L24.3,3l-.07,0a29.5,29.5,0,0,0-3.84,4A22.3,22.3,0,0,0,17.77,11,7.78,7.78,0,0,0,21,21.67a.64.64,0,0,0,.27.07.6.6,0,0,0,.52-.32.59.59,0,0,0-.25-.79A6.6,6.6,0,0,1,18,14.75a6.71,6.71,0,0,1,.81-3.18,22.56,22.56,0,0,1,2.5-3.76,29.33,29.33,0,0,1,3.31-3.5,28.55,28.55,0,0,1,3.31,3.5,22,22,0,0,1,2.51,3.78,6.63,6.63,0,0,1-2.77,9,.59.59,0,0,0,.27,1.11.68.68,0,0,0,.27-.07,7.81,7.81,0,0,0,3.27-10.62Z"/><path class="cls-10" d="M16.5,21.15a.58.58,0,0,0,.58.58H32.14a.58.58,0,0,0,.59-.58.59.59,0,0,0-.59-.59H17.08A.59.59,0,0,0,16.5,21.15Z"/></svg>