<svg id="Layer_1" data-name="Layer 1" xmlns="http://www.w3.org/2000/svg" xmlns:xlink="http://www.w3.org/1999/xlink" viewBox="0 0 180 150"><defs><style>.cls-1{fill:url(#linear-gradient);}.cls-2{fill:url(#linear-gradient-2);}.cls-3{fill:url(#linear-gradient-3);}.cls-4{fill:url(#linear-gradient-4);}.cls-5{fill:url(#linear-gradient-5);}</style><linearGradient id="linear-gradient" x1="52.4" y1="35.19" x2="129.26" y2="112.05" gradientUnits="userSpaceOnUse"><stop offset="0" stop-color="#2696ff"/><stop offset="1" stop-color="#9d2bff"/></linearGradient><linearGradient id="linear-gradient-2" x1="28.91" y1="58.68" x2="105.77" y2="135.54" xlink:href="#linear-gradient"/><linearGradient id="linear-gradient-3" x1="35.24" y1="52.36" x2="112.09" y2="129.21" xlink:href="#linear-gradient"/><linearGradient id="linear-gradient-4" x1="74.51" y1="35.12" x2="107.47" y2="68.08" gradientUnits="userSpaceOnUse"><stop offset="0" stop-color="#ff0200"/><stop offset="1" stop-color="#f08"/></linearGradient><linearGradient id="linear-gradient-5" x1="76.93" y1="32.71" x2="109.89" y2="65.66" xlink:href="#linear-gradient-4"/></defs><title>search blood</title><path class="cls-1" d="M137.28,38a7.39,7.39,0,0,0-7.38,7.38V60.92a7.1,7.1,0,0,0-7.3,1.53L112.1,72.91a38.27,38.27,0,0,0-8.61,5.61,27.36,27.36,0,0,0-9,20.74v6.1h-.34a4.42,4.42,0,0,0-2.84,1.06,4.41,4.41,0,0,0-3-1.17H88V99.14a27.33,27.33,0,0,0-9-20.73,37.89,37.89,0,0,0-8.6-5.62L59.9,62.34a6.9,6.9,0,0,0-7.3-1.58V45.27a7.38,7.38,0,1,0-14.76,0V75.39a12.8,12.8,0,0,0,3.78,9.13l20.73,20.73H58.56a4.45,4.45,0,0,0-4.45,4.45v10.47a4.45,4.45,0,0,0,4.45,4.45H88.34a4.37,4.37,0,0,0,2.84-1.05,4.41,4.41,0,0,0,3,1.17H124a4.46,4.46,0,0,0,4.45-4.45V109.81a4.46,4.46,0,0,0-4.45-4.45h-3.79l20.72-20.72a12.82,12.82,0,0,0,3.78-9.13V45.39A7.39,7.39,0,0,0,137.28,38ZM43.81,82.34a9.8,9.8,0,0,1-2.87-7V45.27a4.29,4.29,0,0,1,8.57,0V63.08a6.81,6.81,0,0,0-1.42,4.15,6.89,6.89,0,0,0,2,4.91L67,88.54a1.55,1.55,0,0,0,2.16-2.22L52.3,69.94a3.83,3.83,0,0,1,5.42-5.41L68.41,75.17a1.59,1.59,0,0,0,.43.3A35.61,35.61,0,0,1,77,80.74a24.25,24.25,0,0,1,7.93,18.4v6.11H66.72ZM89.7,120.17a1.35,1.35,0,0,1-1.36,1.35H58.56a1.35,1.35,0,0,1-1.36-1.35V109.7a1.36,1.36,0,0,1,1.36-1.36H88.34a1.36,1.36,0,0,1,1.36,1.36Zm35.6-10.36v10.48a1.35,1.35,0,0,1-1.35,1.35H94.16a1.36,1.36,0,0,1-1.35-1.35V109.81a1.36,1.36,0,0,1,1.35-1.35H124A1.35,1.35,0,0,1,125.3,109.81Zm16.27-34.3a9.73,9.73,0,0,1-2.88,6.94l-22.91,22.91H97.59v-6.1a24.26,24.26,0,0,1,7.94-18.4,35.09,35.09,0,0,1,8.13-5.27,1.66,1.66,0,0,0,.43-.3l10.7-10.65a3.93,3.93,0,0,1,5.41,0,3.84,3.84,0,0,1,0,5.4l-16.84,16.4a1.55,1.55,0,1,0,2.16,2.21l16.85-16.41a6.86,6.86,0,0,0,.61-9V45.39a4.29,4.29,0,1,1,8.57,0Z"/><path class="cls-2" d="M84.87,111.31a1.55,1.55,0,0,0-1.55,1.55v3.55a1.55,1.55,0,1,0,3.1,0v-3.55A1.54,1.54,0,0,0,84.87,111.31Z"/><path class="cls-3" d="M97.63,118.08a1.54,1.54,0,0,0,1.55-1.55V113a1.55,1.55,0,1,0-3.09,0v3.55A1.54,1.54,0,0,0,97.63,118.08Z"/><path class="cls-4" d="M112,42.43a69.78,69.78,0,0,0-8-12,91.32,91.32,0,0,0-11.7-12.22,1.4,1.4,0,0,0-.17-.09,1.56,1.56,0,0,0-.28-.16,1.34,1.34,0,0,0-.27-.07,1.54,1.54,0,0,0-.3,0,2.4,2.4,0,0,0-.28,0,1.38,1.38,0,0,0-.29.08,2.34,2.34,0,0,0-.27.15c-.05,0-.12.06-.17.1a91.32,91.32,0,0,0-11.7,12.22,69.89,69.89,0,0,0-8,12,23.55,23.55,0,1,0,41.41.06ZM91.24,74.05A20.45,20.45,0,0,1,73.3,43.8,67.22,67.22,0,0,1,81,32.3,88,88,0,0,1,91.24,21.42,88.13,88.13,0,0,1,101.53,32.3a67.23,67.23,0,0,1,7.69,11.55,20.46,20.46,0,0,1-18,30.2Z"/><path class="cls-5" d="M103.92,44.61a1.55,1.55,0,0,0-.62,2.1,13.72,13.72,0,0,1-6.79,19.21,1.55,1.55,0,0,0,.6,3,1.52,1.52,0,0,0,.59-.12A16.81,16.81,0,0,0,106,45.23,1.55,1.55,0,0,0,103.92,44.61Z"/></svg>