<svg id="Layer_1" data-name="Layer 1" xmlns="http://www.w3.org/2000/svg" xmlns:xlink="http://www.w3.org/1999/xlink" viewBox="0 0 48 48"><defs><style>.cls-1{fill:url(#linear-gradient);}.cls-2{fill:url(#linear-gradient-2);}.cls-3{fill:url(#linear-gradient-3);}.cls-4{fill:url(#linear-gradient-4);}.cls-5{fill:url(#linear-gradient-5);}</style><linearGradient id="linear-gradient" x1="10.99" y1="10.79" x2="35.92" y2="35.73" gradientUnits="userSpaceOnUse"><stop offset="0" stop-color="#2696ff"/><stop offset="1" stop-color="#9d2bff"/></linearGradient><linearGradient id="linear-gradient-2" x1="3.37" y1="18.41" x2="28.3" y2="43.35" xlink:href="#linear-gradient"/><linearGradient id="linear-gradient-3" x1="5.42" y1="16.36" x2="30.35" y2="41.29" xlink:href="#linear-gradient"/><linearGradient id="linear-gradient-4" x1="18.16" y1="10.77" x2="28.85" y2="21.46" gradientUnits="userSpaceOnUse"><stop offset="0" stop-color="#ff0200"/><stop offset="1" stop-color="#f08"/></linearGradient><linearGradient id="linear-gradient-5" x1="18.95" y1="9.99" x2="29.64" y2="20.68" xlink:href="#linear-gradient-4"/></defs><title>searchicon</title><path class="cls-1" d="M38.53,11.71a2.4,2.4,0,0,0-2.4,2.39v5a2.3,2.3,0,0,0-2.37.5L30.36,23a12.39,12.39,0,0,0-2.8,1.82,8.88,8.88,0,0,0-2.91,6.73v2h-.11a1.43,1.43,0,0,0-.92.34,1.47,1.47,0,0,0-1-.38h-.11v-2a8.85,8.85,0,0,0-2.92-6.73A12.32,12.32,0,0,0,16.83,23L13.42,19.6a2.22,2.22,0,0,0-2.36-.51v-5a2.4,2.4,0,0,0-4.79,0v9.77a4.17,4.17,0,0,0,1.22,3l6.73,6.72H13A1.45,1.45,0,0,0,11.54,35v3.4A1.44,1.44,0,0,0,13,39.8h9.66a1.43,1.43,0,0,0,.92-.34,1.4,1.4,0,0,0,1,.38H34.2a1.44,1.44,0,0,0,1.44-1.44V35a1.44,1.44,0,0,0-1.44-1.44H33l6.72-6.72a4.2,4.2,0,0,0,1.23-3V14.1A2.39,2.39,0,0,0,38.53,11.71ZM8.2,26.09a3.17,3.17,0,0,1-.93-2.26V14.06a1.39,1.39,0,1,1,2.78,0v5.78a2.23,2.23,0,0,0,.2,2.94l5.47,5.32a.5.5,0,0,0,.71,0,.51.51,0,0,0,0-.71L11,22.07a1.24,1.24,0,1,1,1.76-1.76l3.46,3.45a.45.45,0,0,0,.14.1A11.31,11.31,0,0,1,19,25.57a7.85,7.85,0,0,1,2.58,6v2h-5.9ZM23.09,38.36a.44.44,0,0,1-.44.44H13a.44.44,0,0,1-.44-.44V35a.44.44,0,0,1,.44-.44h9.66a.44.44,0,0,1,.44.44ZM34.64,35v3.4a.44.44,0,0,1-.44.44H24.54a.44.44,0,0,1-.44-.44V35a.44.44,0,0,1,.44-.44H34.2A.44.44,0,0,1,34.64,35Zm5.28-11.13A3.21,3.21,0,0,1,39,26.13l-7.43,7.43h-5.9v-2a7.88,7.88,0,0,1,2.57-6,11.52,11.52,0,0,1,2.64-1.71.5.5,0,0,0,.14-.1l3.47-3.45a1.27,1.27,0,0,1,1.76,0,1.24,1.24,0,0,1,0,1.75l-5.46,5.32a.5.5,0,1,0,.7.72l5.47-5.33a2.22,2.22,0,0,0,.2-2.93V14.1a1.39,1.39,0,0,1,2.78,0Z"/><path class="cls-2" d="M21.52,35.49a.5.5,0,0,0-.5.5v1.15a.51.51,0,0,0,1,0V36A.5.5,0,0,0,21.52,35.49Z"/><path class="cls-3" d="M25.66,37.68a.5.5,0,0,0,.51-.5V36a.51.51,0,0,0-1,0v1.15A.5.5,0,0,0,25.66,37.68Z"/><path class="cls-4" d="M30.31,13.14a23.19,23.19,0,0,0-2.59-3.91,30,30,0,0,0-3.8-4l-.06,0-.08,0-.09,0-.1,0H23.5l-.1,0-.08,0-.06,0a30,30,0,0,0-3.79,4,22.72,22.72,0,0,0-2.59,3.89,7.64,7.64,0,1,0,13.43,0ZM23.59,23.4a6.63,6.63,0,0,1-5.82-9.81,21.42,21.42,0,0,1,2.48-3.73,28.34,28.34,0,0,1,3.34-3.53,28.34,28.34,0,0,1,3.34,3.53,21.79,21.79,0,0,1,2.49,3.74,6.64,6.64,0,0,1-5.83,9.8Z"/><path class="cls-5" d="M27.7,13.85a.51.51,0,0,0-.2.68A4.48,4.48,0,0,1,28,16.65a4.42,4.42,0,0,1-2.74,4.11.5.5,0,0,0-.27.66.51.51,0,0,0,.46.31.48.48,0,0,0,.2,0,5.45,5.45,0,0,0,3.36-5,5.35,5.35,0,0,0-.67-2.6A.5.5,0,0,0,27.7,13.85Z"/></svg>